<svg xmlns="http://www.w3.org/2000/svg" viewBox="0 0 50.35 50.35"><defs><style>.cls-1{fill:#7dbc26;}</style></defs><g id="Capa_2" data-name="Capa 2"><g id="_1" data-name=" 1"><path class="cls-1" d="M25.17,50.35A25.18,25.18,0,1,1,50.35,25.18,25.2,25.2,0,0,1,25.17,50.35ZM25.17,2A23.19,23.19,0,1,0,48.36,25.18,23.21,23.21,0,0,0,25.17,2Z"/><path class="cls-1" d="M25.17,50.35a25.31,25.31,0,0,1-5.6-.63A1,1,0,0,1,19,49.4c-4.17-4.71-6.77-14-6.77-24.23,0-1.5.06-3,.17-4.46a1,1,0,0,1,2,.15c-.11,1.41-.17,2.86-.17,4.31,0,9.45,2.38,18.29,6.06,22.67a23,23,0,0,0,9.7,0,19,19,0,0,0,2.81-4.71,1,1,0,1,1,1.82.8,20.75,20.75,0,0,1-3.34,5.47,1,1,0,0,1-.53.32A25.33,25.33,0,0,1,25.17,50.35Z"/><path class="cls-1" d="M37.05,28.08a1,1,0,0,1-1-1c0-.62,0-1.24,0-1.88,0-9.44-2.37-18.28-6.06-22.66a23,23,0,0,0-9.7,0,17.54,17.54,0,0,0-2.16,3.36A1,1,0,0,1,16.38,5,19,19,0,0,1,19,1a1,1,0,0,1,.53-.32,25.25,25.25,0,0,1,11.21,0,1,1,0,0,1,.53.32c4.17,4.71,6.77,14,6.77,24.22,0,.66,0,1.31,0,1.95A1,1,0,0,1,37.05,28.08Z"/><path class="cls-1" d="M25.17,38.08c-10.23,0-19.51-2.6-24.22-6.77a1,1,0,0,1-.32-.53,25.25,25.25,0,0,1,0-11.21A1,1,0,0,1,1,19a22,22,0,0,1,6.54-3.78,1,1,0,1,1,.72,1.85,20.42,20.42,0,0,0-5.7,3.21,22.92,22.92,0,0,0,0,9.71c4.38,3.68,13.22,6,22.66,6,.78,0,1.56,0,2.34,0a1,1,0,1,1,.08,2C26.79,38.06,26,38.08,25.17,38.08Z"/><path class="cls-1" d="M44.28,34.4a1,1,0,0,1-.43-1.9,18.45,18.45,0,0,0,4-2.47,22.92,22.92,0,0,0,0-9.71c-4.38-3.68-13.22-6.05-22.67-6.05-.75,0-1.49,0-2.23,0a1,1,0,0,1-.07-2c.75,0,1.53-.05,2.3-.05,10.24,0,19.52,2.6,24.23,6.77a.93.93,0,0,1,.31.53,24.86,24.86,0,0,1,0,11.21.93.93,0,0,1-.31.53,19.58,19.58,0,0,1-4.7,3A.92.92,0,0,1,44.28,34.4Z"/><path class="cls-1" d="M25.17,50.35a1,1,0,0,1-1-1V1a1,1,0,1,1,2,0V49.35A1,1,0,0,1,25.17,50.35Z"/><path class="cls-1" d="M49.35,26.17H1a1,1,0,1,1,0-2H49.35a1,1,0,1,1,0,2Z"/><path class="cls-1" d="M36.29,40.58a5.51,5.51,0,1,1,5.51-5.51A5.51,5.51,0,0,1,36.29,40.58Zm0-9a3.52,3.52,0,1,0,3.52,3.52A3.53,3.53,0,0,0,36.29,31.55Z"/><path class="cls-1" d="M36.29,37.12a1,1,0,0,1-.77-.37l-1.29-1.59a1,1,0,1,1,1.55-1.25l.53.66,4-4.66a1,1,0,0,1,1.41-.11,1,1,0,0,1,.11,1.41l-4.76,5.56A1,1,0,0,1,36.29,37.12Z"/><path class="cls-1" d="M14.79,18.78a5.51,5.51,0,1,1,5.51-5.51A5.51,5.51,0,0,1,14.79,18.78Zm0-9a3.52,3.52,0,1,0,3.51,3.52A3.53,3.53,0,0,0,14.79,9.75Z"/><path class="cls-1" d="M14.79,15.31A1,1,0,0,1,14,15l-1.29-1.59a1,1,0,0,1,1.55-1.26l.54.66,4-4.65A1,1,0,1,1,20.3,9.4L15.54,15A1,1,0,0,1,14.79,15.31Z"/><path class="cls-1" d="M44.78,50.35H5.57a1,1,0,0,1,0-2H44.78a1,1,0,0,1,0,2Z"/></g></g></svg>